<svg xmlns="http://www.w3.org/2000/svg" viewBox="0 0 24 24" fill="none">
  <path d="M11.257 1.516C11.655 1.43 12.345 1.43 12.743 1.516C13.131 1.6 13.935 2.194 14.435 2.695C14.935 3.195 15.723 3.601 16.223 3.601C16.723 3.601 17.71 3.8 18.31 4.05C18.91 4.3 19.71 5.05 20.01 5.75C20.31 6.45 20.71 7.05 20.91 7.15C21.11 7.25 21.31 7.65 21.31 8C21.31 8.35 21.51 8.95 21.71 9.3C21.91 9.65 22.01 10.35 21.91 10.85C21.81 11.35 21.91 12.05 22.11 12.4C22.31 12.75 22.31 13.25 22.11 13.6C21.91 13.95 21.81 14.65 21.91 15.15C22.01 15.65 21.91 16.35 21.71 16.7C21.51 17.05 21.31 17.65 21.31 18C21.31 18.35 21.11 18.75 20.91 18.85C20.71 18.95 20.31 19.55 20.01 20.25C19.71 20.95 18.91 21.7 18.31 21.95C17.71 22.2 16.723 22.399 16.223 22.399C15.723 22.399 14.935 22.805 14.435 23.305C13.935 23.806 13.131 24.4 12.743 24.484C12.345 24.57 11.655 24.57 11.257 24.484C10.869 24.4 10.065 23.806 9.565 23.305C9.065 22.805 8.277 22.399 7.777 22.399C7.277 22.399 6.29 22.2 5.69 21.95C5.09 21.7 4.29 20.95 3.99 20.25C3.69 19.55 3.29 18.95 3.09 18.85C2.89 18.75 2.69 18.35 2.69 18C2.69 17.65 2.49 17.05 2.29 16.7C2.09 16.35 1.99 15.65 2.09 15.15C2.19 14.65 2.09 13.95 1.89 13.6C1.69 13.25 1.69 12.75 1.89 12.4C2.09 12.05 2.19 11.35 2.09 10.85C1.99 10.35 2.09 9.65 2.29 9.3C2.49 8.95 2.69 8.35 2.69 8C2.69 7.65 2.89 7.25 3.09 7.15C3.29 7.05 3.69 6.45 3.99 5.75C4.29 5.05 5.09 4.3 5.69 4.05C6.29 3.8 7.277 3.601 7.777 3.601C8.277 3.601 9.065 3.195 9.565 2.695C10.065 2.194 10.869 1.6 11.257 1.516Z" fill="#5B4638"/>
  <path d="M9.5 8.5C9.5 9.33 8.83 10 8 10C7.17 10 6.5 9.33 6.5 8.5C6.5 7.67 7.17 7 8 7C8.83 7 9.5 7.67 9.5 8.5Z" fill="white"/>
  <path d="M17.5 8.5C17.5 9.33 16.83 10 16 10C15.17 10 14.5 9.33 14.5 8.5C14.5 7.67 15.17 7 16 7C16.83 7 17.5 7.67 17.5 8.5Z" fill="white"/>
  <path d="M12 18C14.5 18 16.5 16 16.5 13.5H7.5C7.5 16 9.5 18 12 18Z" fill="white"/>
</svg>
