<svg xmlns="http://www.w3.org/2000/svg" viewBox="0 0 24 24" fill="none">
  <rect width="24" height="24" rx="4" fill="#F59E0B"/>
  <path d="M6 6H10C11.1046 6 12 6.89543 12 8V10C12 11.1046 11.1046 12 10 12H6V6Z" fill="white"/>
  <path d="M6 12H10C11.1046 12 12 12.8954 12 14V16C12 17.1046 11.1046 18 10 18H6V12Z" fill="white"/>
  <path d="M14 6H18C19.1046 6 20 6.89543 20 8V10C20 11.1046 19.1046 12 18 12H14V6Z" fill="white"/>
  <path d="M14 12H18C19.1046 12 20 12.8954 20 14V16C20 17.1046 19.1046 18 18 18H14V12Z" fill="white"/>
</svg>
