<svg xmlns="http://www.w3.org/2000/svg" viewBox="0 0 24 24" fill="none">
  <path fill-rule="evenodd" clip-rule="evenodd" d="M12 2C6.477 2 2 6.477 2 12C2 17.523 6.477 22 12 22C17.523 22 22 17.523 22 12C22 6.477 17.523 2 12 2ZM14.737 15.535C14.237 16.035 13.737 16.535 13.237 16.535C12.737 16.535 12.237 16.035 11.737 15.535L8.263 12.061C7.763 11.561 7.763 10.561 8.263 10.061C8.763 9.561 9.763 9.561 10.263 10.061L12 11.798L16.737 7.061C17.237 6.561 18.237 6.561 18.737 7.061C19.237 7.561 19.237 8.561 18.737 9.061L14.737 15.535Z" fill="#FFA116"/>
</svg>
