<svg xmlns="http://www.w3.org/2000/svg" width="24" height="24" viewBox="0 0 24 24" fill="none" stroke="currentColor" stroke-width="2" stroke-linecap="round" stroke-linejoin="round">
  <path d="M12 22C17.5228 22 22 17.5228 22 12C22 6.47715 17.5228 2 12 2C6.47715 2 2 6.47715 2 12C2 17.5228 6.47715 22 12 22Z" fill="#FFFFFF" stroke="none"/>
  <path d="M17.6588 12.2169C17.6588 11.5169 17.6 10.8 17.4765 10.1H12V13.275H15.225C15.0824 14.1699 14.5929 14.9748 13.8596 15.5346L13.8455 15.6542L15.6982 17.1196L15.8618 17.1364C16.9765 16.1 17.6588 14.3 17.6588 12.2169Z" fill="#4285F4" stroke="none"/>
  <path d="M12 18C13.95 18 15.6088 17.4088 16.8618 16.3637L13.8596 14.7346C13.2521 15.1346 12.4818 15.4 12 15.4C10.3959 15.4 9.02654 14.3407 8.52391 12.8H8.40909L6.48546 14.3318L6.45 14.4364C7.69773 16.6637 9.68182 18 12 18Z" fill="#34A853" stroke="none"/>
  <path d="M8.52409 12.8C8.32409 12.1 8.32409 11.35 8.52409 10.65L8.51818 10.5227L6.56364 9.00909L6.45 9.06364C5.85 10.55 5.85 12.25 6.45 13.7364L8.52409 12.8Z" fill="#FBBC05" stroke="none"/>
  <path d="M12 8.59998C13.0818 8.59998 13.9886 8.99998 14.6782 9.64998L17.3782 7.04998C15.6 5.39998 13.95 4.59998 12 4.59998C9.68182 4.59998 7.69773 5.93635 6.45 8.16362L8.52409 10.1C9.02654 8.55907 10.3959 7.49998 12 7.49998V8.59998Z" fill="#EA4335" stroke="none"/>
</svg>
